<?xml version="1.0" encoding="UTF-8" standalone="no"?>
<!-- Created with Inkscape (http://www.inkscape.org/) -->

<svg
   width="150"
   height="150"
   viewBox="0 0 39.6875 39.6875"
   version="1.1"
   id="svg1"
   inkscape:version="1.4 (86a8ad7, 2024-10-11)"
   sodipodi:docname="logo_download.svg"
   inkscape:export-filename="..\imgs\logo_download.png"
   inkscape:export-xdpi="96"
   inkscape:export-ydpi="96"
   xmlns:inkscape="http://www.inkscape.org/namespaces/inkscape"
   xmlns:sodipodi="http://sodipodi.sourceforge.net/DTD/sodipodi-0.dtd"
   xmlns:xlink="http://www.w3.org/1999/xlink"
   xmlns="http://www.w3.org/2000/svg"
   xmlns:svg="http://www.w3.org/2000/svg">
  <sodipodi:namedview
     id="namedview1"
     pagecolor="#ffffff"
     bordercolor="#cccccc"
     borderopacity="1"
     inkscape:showpageshadow="0"
     inkscape:pageopacity="1"
     inkscape:pagecheckerboard="0"
     inkscape:deskcolor="#d1d1d1"
     inkscape:document-units="px"
     inkscape:zoom="2.2807"
     inkscape:cx="70.592362"
     inkscape:cy="85.500066"
     inkscape:window-width="1024"
     inkscape:window-height="701"
     inkscape:window-x="-9"
     inkscape:window-y="-9"
     inkscape:window-maximized="1"
     inkscape:current-layer="layer1" />
  <defs
     id="defs1">
    <linearGradient
       id="linearGradient25"
       inkscape:collect="always">
      <stop
         style="stop-color:#6aaeff;stop-opacity:1;"
         offset="0.64879352"
         id="stop24" />
      <stop
         style="stop-color:#6aff9c;stop-opacity:0.98230088;"
         offset="1"
         id="stop25" />
    </linearGradient>
    <radialGradient
       inkscape:collect="always"
       xlink:href="#linearGradient25"
       id="radialGradient26"
       cx="-22.693638"
       cy="8.8421612"
       fx="-22.693638"
       fy="8.8421612"
       r="2.7384725"
       gradientTransform="matrix(1,0,0,1.610795,0,-5.4007479)"
       gradientUnits="userSpaceOnUse" />
    <radialGradient
       inkscape:collect="always"
       xlink:href="#linearGradient25"
       id="radialGradient30"
       gradientUnits="userSpaceOnUse"
       gradientTransform="matrix(1,0,0,1.610795,0,-5.4007479)"
       cx="-22.693638"
       cy="8.8421612"
       fx="-22.693638"
       fy="8.8421612"
       r="2.7384725" />
    <radialGradient
       inkscape:collect="always"
       xlink:href="#linearGradient25"
       id="radialGradient14"
       gradientUnits="userSpaceOnUse"
       gradientTransform="matrix(1,0,0,1.610795,0,-5.4007479)"
       cx="-22.693638"
       cy="8.8421612"
       fx="-22.693638"
       fy="8.8421612"
       r="2.7384725" />
    <radialGradient
       inkscape:collect="always"
       xlink:href="#linearGradient25"
       id="radialGradient15"
       gradientUnits="userSpaceOnUse"
       gradientTransform="matrix(1,0,0,1.610795,0,-5.4007479)"
       cx="-22.693638"
       cy="8.8421612"
       fx="-22.693638"
       fy="8.8421612"
       r="2.7384725" />
  </defs>
  <g
     inkscape:label="Camada 1"
     inkscape:groupmode="layer"
     id="layer1">
    <g
       id="g15"
       transform="translate(7.1926017,-1.6165546e-4)">
      <path
         id="path2"
         style="fill:#020202;fill-opacity:1;fill-rule:evenodd;stroke:#000000;stroke-width:1.00001;stroke-linecap:round;stroke-linejoin:round;stroke-dasharray:none;stroke-opacity:1;paint-order:fill markers stroke"
         d="M 17.211301,1.250383 11.854573,3.9275321 12.202602,31.876335 21.704518,21.202626 14.785144,19.775412 Z M 7.0467685,1.547576 9.3569159,19.840586 2.4375421,21.268381 11.939458,31.942092 12.171477,3.9927046 Z"
         sodipodi:nodetypes="cccccccccccc" />
      <g
         id="g3"
         transform="matrix(0.9515006,0,0,1.2775376,-5.9502932,-5.2114342)"
         style="stroke-width:0.907009">
        <path
           style="fill:none;fill-opacity:1;fill-rule:evenodd;stroke:#000000;stroke-width:0.907009;stroke-linecap:round;stroke-linejoin:round;stroke-dasharray:none;stroke-opacity:1;paint-order:fill markers stroke"
           d="m 26.637191,25.59375 c 0,0 0.588839,2.525536 -1.248548,4.403941 -0.892027,0.911939 -3.531619,4.562366 -6.115875,4.654621 -2.738776,0.09777 -5.429689,-3.415453 -6.434907,-4.326496 -1.953722,-1.770686 -1.453627,-4.773082 -1.453627,-4.773082 m 14.004409,4.444956 c -0.929598,0.950349 -3.631086,1.89051 -6.326611,1.948929 -2.632295,0.05705 -5.258903,-0.745968 -6.224171,-1.620804"
           id="path3-3"
           sodipodi:nodetypes="csssccsc" />
      </g>
      <g
         id="g28"
         transform="matrix(1.982944,0,0,2.079081,-26.866518,-9.2439902)"
         style="stroke-width:0.492503">
        <ellipse
           style="fill:url(#radialGradient26);fill-opacity:1;fill-rule:evenodd;stroke:#000000;stroke-width:0.0295502;stroke-linecap:round;stroke-linejoin:round;stroke-dasharray:none;stroke-opacity:1;paint-order:fill markers stroke"
           id="ellipse7"
           cx="-22.693638"
           cy="8.8421612"
           rx="2.7084725"
           ry="4.3811178"
           transform="scale(-1,1)" />
        <ellipse
           style="fill:#000000;fill-opacity:1;fill-rule:evenodd;stroke:#000000;stroke-width:0.0295502;stroke-linecap:round;stroke-linejoin:round;stroke-dasharray:none;stroke-opacity:1;paint-order:fill markers stroke"
           id="ellipse8"
           cx="-22.406633"
           cy="8.9925022"
           rx="1.4694047"
           ry="2.3107467"
           transform="scale(-1,1)" />
        <ellipse
           style="fill:#ffffff;fill-opacity:1;fill-rule:evenodd;stroke:#000000;stroke-width:0.0295502;stroke-linecap:round;stroke-linejoin:round;stroke-dasharray:none;stroke-opacity:1;paint-order:fill markers stroke"
           id="ellipse9"
           cx="-22.903337"
           cy="7.8501272"
           rx="0.47879475"
           ry="0.64370805"
           transform="scale(-1,1)" />
      </g>
      <g
         id="g30"
         transform="matrix(1.982944,0,0,2.079081,-39.14975,-8.9412446)"
         style="stroke-width:0.492503">
        <ellipse
           style="fill:url(#radialGradient30);fill-opacity:1;fill-rule:evenodd;stroke:#000000;stroke-width:0.0295502;stroke-linecap:round;stroke-linejoin:round;stroke-dasharray:none;stroke-opacity:1;paint-order:fill markers stroke"
           id="ellipse28"
           cx="-22.693638"
           cy="8.8421612"
           rx="2.7084725"
           ry="4.3811178"
           transform="scale(-1,1)" />
        <ellipse
           style="fill:#000000;fill-opacity:1;fill-rule:evenodd;stroke:#000000;stroke-width:0.0295502;stroke-linecap:round;stroke-linejoin:round;stroke-dasharray:none;stroke-opacity:1;paint-order:fill markers stroke"
           id="ellipse29"
           cx="-22.406633"
           cy="8.9925022"
           rx="1.4694047"
           ry="2.3107467"
           transform="scale(-1,1)" />
        <ellipse
           style="fill:#ffffff;fill-opacity:1;fill-rule:evenodd;stroke:#000000;stroke-width:0.0295502;stroke-linecap:round;stroke-linejoin:round;stroke-dasharray:none;stroke-opacity:1;paint-order:fill markers stroke"
           id="ellipse30"
           cx="-22.903337"
           cy="7.8501272"
           rx="0.47879475"
           ry="0.64370805"
           transform="scale(-1,1)" />
      </g>
      <path
         style="fill:#080000;fill-opacity:1;fill-rule:evenodd;stroke:none;stroke-width:1.32291;stroke-linecap:round;stroke-linejoin:round;stroke-dasharray:none;stroke-opacity:1;paint-order:fill markers stroke"
         d="m 3.1211639,35.216282 c 0,0 3.0987831,-0.244252 4.4464774,0.323587 C 8.3987871,35.890067 7.380329,38.443799 6.350187,38.705172 4.0220392,39.295877 4.9133524,38.457759 4.4622531,38.521093 3.9426366,38.594045 3.8320819,39.319645 2.8569705,39.489471 1.6800644,39.694472 1.9740915,38.992861 1.66611,38.867897 1.0529055,38.619085 -0.20789514,39.059062 0.53656685,37.400333 1.2556483,35.798154 3.1211639,35.216282 3.1211639,35.216282 Z"
         id="path43"
         sodipodi:nodetypes="cssssssc" />
      <path
         style="fill:#080000;fill-opacity:1;fill-rule:evenodd;stroke:none;stroke-width:1.32291;stroke-linecap:round;stroke-linejoin:round;stroke-dasharray:none;stroke-opacity:1;paint-order:fill markers stroke"
         d="m 20.122794,35.318351 c 0,0 -2.58869,-0.260365 -3.909426,0.367628 -0.814522,0.387297 0.317987,2.892541 1.358858,3.107224 2.352402,0.485189 1.424225,-0.311912 1.87772,-0.268971 0.522378,0.04946 0.665518,0.769345 1.647291,0.895053 1.184954,0.151727 0.859605,-0.53589 1.161641,-0.674608 0.60137,-0.276193 1.880717,0.106522 1.06226,-1.516974 -0.790551,-1.568148 -3.198344,-1.909352 -3.198344,-1.909352 z"
         id="path44"
         sodipodi:nodetypes="cssssssc" />
      <path
         style="fill:#ff5555;fill-rule:evenodd;stroke:none;stroke-width:0.264583;stroke-linecap:round;stroke-linejoin:round;paint-order:fill markers stroke"
         d="m 15.231275,36.517036 c 0,0 -0.965773,-0.937024 -1.828804,-0.374809 -0.863029,0.562216 -0.595901,0.406044 -1.869899,0.187405 -1.273998,-0.21864 -1.6233203,-0.187405 -1.8699006,0.218639 -0.2465802,0.406045 -0.3287737,0.499748 -0.3287737,0.499748 0,0 1.5367053,1.592937 2.7329313,1.592939 1.582223,2e-6 3.164446,-2.123922 3.164446,-2.123922 z"
         id="path1"
         sodipodi:nodetypes="cssscsc" />
    </g>
    <g
       id="g14"
       transform="matrix(1.0011876,0,0,1.0769499,118.25723,-4.448761)"
       style="stroke-width:0.96304">
      <path
         id="path3"
         style="fill:#020202;fill-opacity:1;fill-rule:evenodd;stroke:#000000;stroke-width:0.96305;stroke-linecap:round;stroke-linejoin:round;stroke-dasharray:none;stroke-opacity:1;paint-order:fill markers stroke"
         d="M 16.452364,3.5684006 12.260711,4.8693361 V 32.436959 L 21.751356,20.069121 14.84019,20.217954 Z M 7.8062263,3.6289174 9.4184009,20.278471 2.5072348,20.130177 11.99788,32.498017 V 4.9298519 Z"
         sodipodi:nodetypes="cccccccccccc" />
      <g
         id="g4"
         transform="matrix(1.3896428,0,0,1.1862554,-14.453259,-2.0008263)"
         style="stroke-width:0.750079">
        <path
           style="fill:none;fill-opacity:1;fill-rule:evenodd;stroke:#000000;stroke-width:0.750079;stroke-linecap:round;stroke-linejoin:round;stroke-dasharray:none;stroke-opacity:1;paint-order:fill markers stroke"
           d="m 27.19333,25.59375 c 0,0 0.0327,2.525536 -1.804687,4.403941 -0.892027,0.911939 -3.531619,4.562366 -6.115875,4.654621 -2.738776,0.09777 -5.429689,-3.415453 -6.434907,-4.326496 -1.953722,-1.770686 -2.009766,-4.773082 -2.009766,-4.773082 m 14.560548,4.444956 c -1.83739,1.878406 -10.59706,2.098811 -12.550782,0.328125"
           id="path4"
           sodipodi:nodetypes="csssccc" />
      </g>
      <g
         id="g6"
         transform="matrix(1.6476546,0,0,1.6058008,-20.274722,-4.2967661)"
         style="stroke-width:0.592059">
        <ellipse
           style="fill:url(#radialGradient14);fill-opacity:1;fill-rule:evenodd;stroke:#000000;stroke-width:0.0355236;stroke-linecap:round;stroke-linejoin:round;stroke-dasharray:none;stroke-opacity:1;paint-order:fill markers stroke"
           id="ellipse4"
           cx="-22.693638"
           cy="8.8421612"
           rx="2.7084725"
           ry="4.3811178"
           transform="scale(-1,1)" />
        <ellipse
           style="fill:#000000;fill-opacity:1;fill-rule:evenodd;stroke:#000000;stroke-width:0.0355236;stroke-linecap:round;stroke-linejoin:round;stroke-dasharray:none;stroke-opacity:1;paint-order:fill markers stroke"
           id="ellipse5"
           cx="-22.406633"
           cy="8.9925022"
           rx="1.4694047"
           ry="2.3107467"
           transform="scale(-1,1)" />
        <ellipse
           style="fill:#ffffff;fill-opacity:1;fill-rule:evenodd;stroke:#000000;stroke-width:0.0355236;stroke-linecap:round;stroke-linejoin:round;stroke-dasharray:none;stroke-opacity:1;paint-order:fill markers stroke"
           id="ellipse6"
           cx="-22.903337"
           cy="7.8501272"
           rx="0.47879475"
           ry="0.64370805"
           transform="scale(-1,1)" />
      </g>
      <g
         id="g12"
         transform="matrix(1.6476546,0,0,1.6058008,-30.481023,-4.0629373)"
         style="stroke-width:0.592059">
        <ellipse
           style="fill:url(#radialGradient15);fill-opacity:1;fill-rule:evenodd;stroke:#000000;stroke-width:0.0355236;stroke-linecap:round;stroke-linejoin:round;stroke-dasharray:none;stroke-opacity:1;paint-order:fill markers stroke"
           id="ellipse10"
           cx="-22.693638"
           cy="8.8421612"
           rx="2.7084725"
           ry="4.3811178"
           transform="scale(-1,1)" />
        <ellipse
           style="fill:#000000;fill-opacity:1;fill-rule:evenodd;stroke:#000000;stroke-width:0.0355236;stroke-linecap:round;stroke-linejoin:round;stroke-dasharray:none;stroke-opacity:1;paint-order:fill markers stroke"
           id="ellipse11"
           cx="-22.406633"
           cy="8.9925022"
           rx="1.4694047"
           ry="2.3107467"
           transform="scale(-1,1)" />
        <ellipse
           style="fill:#ffffff;fill-opacity:1;fill-rule:evenodd;stroke:#000000;stroke-width:0.0355236;stroke-linecap:round;stroke-linejoin:round;stroke-dasharray:none;stroke-opacity:1;paint-order:fill markers stroke"
           id="ellipse12"
           cx="-22.903337"
           cy="7.8501272"
           rx="0.47879475"
           ry="0.64370805"
           transform="scale(-1,1)" />
      </g>
      <path
         style="fill:#080000;fill-opacity:1;fill-rule:evenodd;stroke:none;stroke-width:1.27402;stroke-linecap:round;stroke-linejoin:round;stroke-dasharray:none;stroke-opacity:1;paint-order:fill markers stroke"
         d="m 5.083351,35.728636 c 0,0 -2.031232,-2.182861 -3.387632,-2.686787 -0.83651631,-0.310779 -1.90455654,2.041105 -1.3557345,2.885822 1.2403544,1.90908 1.1949168,0.773814 1.4711184,1.109934 0.3181556,0.387173 -0.1124194,0.938768 0.4615254,1.687093 0.6927228,0.90319 0.9760261,0.247777 1.282628,0.36611 0.6104605,0.235602 1.1979074,1.348809 1.8326778,-0.232919 C 6.001064,37.330085 5.083351,35.728636 5.083351,35.728636 Z"
         id="path12"
         sodipodi:nodetypes="cssssssc" />
      <path
         style="fill:#080000;fill-opacity:1;fill-rule:evenodd;stroke:none;stroke-width:1.27402;stroke-linecap:round;stroke-linejoin:round;stroke-dasharray:none;stroke-opacity:1;paint-order:fill markers stroke"
         d="m 19.352592,35.468396 c 0,0 1.565467,-1.928297 2.921866,-2.432225 0.836517,-0.31078 1.904556,2.041107 1.355735,2.885822 -1.240354,1.90908 -1.194917,0.773813 -1.471118,1.109933 -0.318156,0.387174 0.112421,0.93877 -0.461526,1.687093 -0.692723,0.903192 -0.976026,0.24778 -1.282628,0.366111 -0.610461,0.235603 -1.197907,1.348811 -1.832677,-0.232919 -0.613131,-1.527804 0.770348,-3.383815 0.770348,-3.383815 z"
         id="path13"
         sodipodi:nodetypes="cssssssc" />
      <path
         style="fill:#ff5555;fill-rule:evenodd;stroke:none;stroke-width:0.254804;stroke-linecap:round;stroke-linejoin:round;paint-order:fill markers stroke"
         d="m 16.560385,36.746074 c 0,0 -1.363114,-0.870072 -2.581216,-0.348028 -1.218101,0.522044 -0.84107,0.377031 -2.63922,0.174014 -1.7981507,-0.203018 -2.291192,-0.174014 -2.6392212,0.203017 -0.3480289,0.377032 -0.4640387,0.46404 -0.4640387,0.46404 0,0 2.1689429,1.479119 3.8573229,1.479121 2.233187,2e-6 4.466373,-1.972164 4.466373,-1.972164 z"
         id="path14"
         sodipodi:nodetypes="cssscsc" />
    </g>
  </g>
</svg>
